<?xml version="1.0" encoding="utf-8"?>
<!-- Generator: Adobe Illustrator 16.0.0, SVG Export Plug-In . SVG Version: 6.00 Build 0)  -->
<!DOCTYPE svg PUBLIC "-//W3C//DTD SVG 1.1//EN" "http://www.w3.org/Graphics/SVG/1.1/DTD/svg11.dtd">
<svg version="1.1" id="Layer_1" xmlns="http://www.w3.org/2000/svg" xmlns:xlink="http://www.w3.org/1999/xlink" x="0px" y="0px"
	 width="200px" height="100px" viewBox="0 0 200 100" enable-background="new 0 0 200 100" xml:space="preserve">
<g>
	<g>
		<path fill="#FFFFFF" d="M50,99C22.981,99,1,77.019,1,50S22.981,1,50,1h100c27.019,0,49,21.981,49,49s-21.981,49-49,49H50z"/>
		<path fill="#485456" d="M150,2c26.468,0,48,21.533,48,48c0,26.468-21.532,48-48,48H50C23.533,98,2,76.468,2,50
			C2,23.533,23.533,2,50,2H150 M150,0H50C22.386,0,0,22.386,0,50V37.727c0,0,0,3.067,0,12.273c0,27.614,22.386,50,50,50h100
			c27.613,0,50-22.386,50-50S177.613,0,150,0L150,0z"/>
	</g>
</g>
</svg>
