<svg id="Layer_1" data-name="Layer 1" xmlns="http://www.w3.org/2000/svg" viewBox="0 0 799.99981 199.99994"><defs><style>.cls-1{fill:#7ac9d0;}.cls-1,.cls-2,.cls-3{fill-rule:evenodd;}.cls-2{fill:#08808e;}.cls-3{fill:#005059;}</style></defs><title>bottom-bg</title><path class="cls-1" d="M799.99987,23.89407S703.805,10.44839,588.12778,3.88951s-160.73058-3.60738-175.34243,0-79.14763,17.381-165.60119,15.74129-113.89792-.36714-163.49384-6.08653S.00006,25.20585.00006,25.20585v174.794H799.99987Z" transform="translate(-0.00006 0.00007)"/><path class="cls-2" d="M799.99987,26.18968l-82.80061-6.88681C599.08668,8.15278,504.10947-2.34143,440.79142,4.54538S348.2496,20.61462,260.57839,24.222,121.76563,17.00726,74.27707,17.33519c-24.35311.6559-60.88279.98384-74.277,13.77365v168.891H799.99987Z" transform="translate(-0.00006 0.00007)"/><path class="cls-3" d="M799.99987,26.18968S781.735,29.79707,666.05775,18.319,456.621,7.49688,387.21459,14.05576,239.87826,40.94715,126.63625,29.46912.00006,44.88246.00006,44.88246V199.99987H799.99987Z" transform="translate(-0.00006 0.00007)"/></svg>