<svg id="Layer_2" data-name="Layer 2" xmlns="http://www.w3.org/2000/svg" viewBox="0 0 550 650"><defs><style>.cls-1{fill:#7ac9d0;}.cls-1,.cls-2,.cls-3{fill-rule:evenodd;}.cls-2{fill:#08808e;}.cls-3{fill:#005059;}</style></defs><title>form-bg-green</title><path class="cls-1" d="M484.29107,650s36.97567-78.1583,55.01258-172.14612,9.92031-130.59361,0-142.46575-47.79781-64.30746-43.28858-134.551,1.00965-92.54208,16.738-132.83877S480.68369,0,480.68369,0H0V650Z"/><path class="cls-2" d="M477.97816,650l18.93875-67.27549C527.57966,486.758,556.43872,409.589,537.5,358.14307s-44.19043-75.19025-54.11073-146.42313S503.22983,98.93455,502.328,60.35008C500.52429,40.56317,499.62245,10.8828,464.45047,0H0V650Z"/><path class="cls-3" d="M477.97816,650s-9.92031-14.84018,21.64429-108.828,29.7609-170.16742,11.724-226.56012S437.3951,194.90107,468.9597,102.89193,426.573,0,426.573,0H0V650Z"/></svg>