<?xml version="1.0" encoding="utf-8"?>
<!-- Generator: Adobe Illustrator 23.0.0, SVG Export Plug-In . SVG Version: 6.00 Build 0)  -->
<svg version="1.1" id="Layer_1" xmlns="http://www.w3.org/2000/svg" xmlns:xlink="http://www.w3.org/1999/xlink" x="0px" y="0px"
	 viewBox="0 0 550 650" style="enable-background:new 0 0 550 650;" xml:space="preserve">
<style type="text/css">
	.st0{fill-rule:evenodd;clip-rule:evenodd;fill:#5B5B82;}
	.st1{fill-rule:evenodd;clip-rule:evenodd;fill:#2C2C60;}
	.st2{fill-rule:evenodd;clip-rule:evenodd;fill:#070725;}
</style>
<g>
	<path class="st0" d="M484.29,650c0,0,36.98-78.16,55.01-172.15s9.92-130.59,0-142.47c-9.92-11.87-47.8-64.31-43.29-134.55
		c4.51-70.24,1.01-92.54,16.74-132.84S480.68,0,480.68,0H0v650H484.29z"/>
	<path class="st1" d="M477.98,650l18.94-67.28c30.66-95.97,59.52-173.14,40.58-224.58c-18.94-51.45-44.19-75.19-54.11-146.42
		c-9.92-71.23,19.84-112.79,18.94-151.37c-1.8-19.79-2.71-49.47-37.88-60.35H0v650H477.98z"/>
	<path class="st2" d="M477.98,650c0,0-9.92-14.84,21.64-108.83c31.56-93.99,29.76-170.17,11.72-226.56
		c-18.04-56.39-73.95-119.71-42.39-211.72S426.57,0,426.57,0H0v650H477.98z"/>
</g>
</svg>
