<svg id="OBJECTS" xmlns="http://www.w3.org/2000/svg" viewBox="0 0 684.73389 417.5958"><defs><style>.cls-1{fill:#9fb2d9;}.cls-1,.cls-10,.cls-13,.cls-17,.cls-2,.cls-3,.cls-32,.cls-37,.cls-4,.cls-40,.cls-41,.cls-42,.cls-43,.cls-44,.cls-47,.cls-48,.cls-49,.cls-5,.cls-50,.cls-51,.cls-52,.cls-53,.cls-54,.cls-6,.cls-7{fill-rule:evenodd;}.cls-2{fill:#e1e8f6;}.cls-3{fill:#b4c5e6;}.cls-36,.cls-4{fill:#fff;}.cls-5{fill:#c0cdea;}.cls-6,.cls-8{fill:#00000f;}.cls-7,.cls-9{fill:#3b405f;}.cls-10,.cls-33{fill:#101537;}.cls-11{fill:#5eb9bd;}.cls-12{fill:#ddd;}.cls-13,.cls-15{fill:#424242;}.cls-14,.cls-17{fill:#232323;}.cls-16{font-size:2px;fill:#888988;stroke:#878787;stroke-width:0.2px;font-family:OCRAExtended, OCR A Extended;}.cls-16,.cls-21,.cls-23,.cls-24,.cls-25,.cls-26{stroke-miterlimit:10;}.cls-18{fill:#f77777;}.cls-19{fill:#fffc99;}.cls-20{fill:#6edd6b;}.cls-21,.cls-23,.cls-24,.cls-25,.cls-26{fill:none;stroke-linecap:round;}.cls-21{stroke:#919191;}.cls-22{fill:#919191;}.cls-23{stroke:#29e548;}.cls-24{stroke:#db3b5a;}.cls-25{stroke:#e5e5e5;}.cls-26{stroke:#dbbf35;}.cls-27{fill:#383838;}.cls-28{fill:#d1d1d1;}.cls-29{fill:#e58b29;}.cls-30{fill:#efd259;}.cls-31{fill:#4469f2;}.cls-32,.cls-38{fill:#070725;}.cls-34{fill:#d58750;}.cls-35,.cls-40{fill:#b56b41;}.cls-37{fill:#e4e1e8;}.cls-39{fill:#aeabba;}.cls-41{fill:#ed7862;}.cls-42{fill:#f5ac83;}.cls-43{fill:#d64c47;}.cls-44{fill:#181d3b;}.cls-45,.cls-48{fill:#f18a00;}.cls-46,.cls-49{fill:#fcc100;}.cls-47{fill:#707386;}.cls-50{fill:#294d3c;}.cls-51{fill:#4a9075;}.cls-52{fill:#1b7154;}.cls-53{fill:#a6c86b;}.cls-54{fill:#5f9850;}</style></defs><title>2663507 copy</title><path class="cls-1" d="M406.041,78.4199a.91406.91406,0,1,0-1.82811,0v2.1504h-2.1504a.91455.91455,0,0,0,0,1.8291h2.1504v2.1504a.91406.91406,0,1,0,1.82811,0V82.3994h2.15039a.91455.91455,0,1,0,0-1.8291H406.041Z" transform="translate(-32.6333 -41.2021)"/><path class="cls-2" d="M174.9092,332.9326H114.9038A58.89017,58.89017,0,0,0,56.186,391.6514h0a58.88975,58.88975,0,0,0,58.7178,58.7168H622.28709c52.29491,0,95.0801-42.7862,95.0801-95.0791v-.002c0-52.293-42.78519-95.0791-95.0801-95.0801h0a40.32077,40.32077,0,0,1-40.2012-40.2031h0a40.31856,40.31856,0,0,1,40.2012-40.2012h48.3848a41.91825,41.91825,0,0,0,41.7949-41.7978h0a41.91806,41.91806,0,0,0-41.7949-41.7969h-61.1836a16.32048,16.32048,0,0,1-16.2715-16.2734h0a16.3195,16.3195,0,0,1,16.2715-16.2715h10.7851a11.26284,11.26284,0,0,0,11.2305-11.2305h0a11.2642,11.2642,0,0,0-11.2305-11.2305H549.502c-14.90431,0-16.56451,17.6075-54.21291,17.6075h-87.2989a14.69714,14.69714,0,0,0-14.6543,14.6543h0a14.69721,14.69721,0,0,0,14.6543,14.6543h14.0723a21.29727,21.29727,0,0,1,21.2344,21.2324v.0019a21.29736,21.29736,0,0,1-21.2344,21.2325H379.707c-57.1924,0-65.2705,14.9463-75.2876,44.6738-10.0171,29.7266-62.039,32.124-62.039,32.124H171.2466a32.09171,32.09171,0,0,0-31.9981,31.9971h0a32.09269,32.09269,0,0,0,31.9981,31.999h3.6626a30.8666,30.8666,0,0,1,30.7768,30.7764h0a30.86679,30.86679,0,0,1-30.7768,30.7773ZM651.78909,63.6631a11.2305,11.2305,0,1,1,11.2304-11.2305A11.23187,11.23187,0,0,1,651.78909,63.6631Z" transform="translate(-32.6333 -41.2021)"/><path class="cls-3" d="M573.51369,235.9961c6.0801-8.8174,18.8242-23.4844,43.1875-38.0811,38.5371-23.0908,67.7343-53.6923,54.9023-71.7998-12.5918-17.7695-69.0312,16.5498-115.9023,102.335A102.78985,102.78985,0,0,0,573.51369,235.9961Z" transform="translate(-32.6333 -41.2021)"/><path class="cls-4" d="M565.98629,228.1553a23.60112,23.60112,0,0,1,7.6016,1.04.48883.48883,0,0,0,.2773-.9375,25.52954,25.52954,0,0,0-7.2968-1.0937q1.248-2.11965,2.498-4.1797c1.7012-.0381,7.1875-.1475,9.2481-.0342a.49.49,0,0,0,.0546-.9785c-1.8925-.1035-6.5449-.0264-8.70109.0176q2.34374-3.8409,4.68939-7.4678a113.73235,113.73235,0,0,1,12.3985.9385.49037.49037,0,0,0,.1328-.9717,115.80459,115.80459,0,0,0-11.9121-.9336q2.36715-3.6504,4.73241-7.0859a162.058,162.058,0,0,1,17.707,1.3359.49037.49037,0,0,0,.13279-.9717,163.0445,163.0445,0,0,0-17.17179-1.331q3.11129-4.5,6.19719-8.6456c2.3594-.1005,12.1426-.3525,19.4883,2.0049a.49025.49025,0,0,0,.3027-.9326c-6.8457-2.1953-15.7265-2.1758-19.0488-2.0762q3.79695-5.06835,7.5332-9.6211c3.2188.1817,16.1699,1.1641,22.2305,5.4541a.48927.48927,0,0,0,.5625-.8007c-5.8789-4.1621-17.84959-5.3077-22.01959-5.5869q3.96973-4.8048,7.83989-9.0645a101.83241,101.83241,0,0,1,21.418,7.5615.48868.48868,0,1,0,.4414-.872,102.72447,102.72447,0,0,0-21.1075-7.5206q2.29395-2.50335,4.543-4.8261a110.17626,110.17626,0,0,1,24.4961,8.7822.48962.48962,0,0,0,.4277-.8809,113.75307,113.75307,0,0,0-24.1132-8.7275q5.34375-5.4609,10.39061-9.9521c2.84369.9404,17.24609,5.8164,24.82029,10.6328a.48875.48875,0,0,0,.5254-.8243c-7.2754-4.6269-20.67769-9.2783-24.4961-10.5566q2.9385-2.59425,5.7519-4.8838a144.07079,144.07079,0,0,1,23.7833,10.6572.48914.48914,0,1,0,.49021-.8466,144.98156,144.98156,0,0,0-23.375-10.5371c4.38669-3.5274,8.51559-6.5137,12.32419-9.0303,2.4082.5674,13.2852,3.291,21.4512,8.0273a.48925.48925,0,0,0,.4922-.8457c-7.5098-4.3535-17.2442-7.0254-20.8184-7.916q2.3643-1.52925,4.5449-2.8213a75.73554,75.73554,0,0,1,18.5235,4.7158.49.49,0,1,0,.3535-.914,79.85178,79.85178,0,0,0-17.4824-4.6192c11.7265-6.7715,19.0117-8.4931,19.0722-8.5088a.73423.73423,0,0,0-.3594-1.4238,56.28831,56.28831,0,0,0-8.8066,3.2285,44.04432,44.04432,0,0,1,4.2559-4.9248.48873.48873,0,0,0-.50979-.834c-.88481.5411-4.46291,5.0762-5.68951,6.6465-2.2558,1.0586-4.8203,2.3643-7.664,3.9727l4.834-9.6084a.48894.48894,0,0,0-.8731-.4404l-5.5019,10.9335c-1.9492,1.1397-4.0176,2.417-6.1856,3.8409l5.211-11.3897a.48919.48919,0,1,0-.8887-.4092L637.873,143.9473c-3.25,2.1904-6.71481,4.7011-10.36321,7.5957l4.5175-11.8028a.49074.49074,0,0,0-.916-.3525l-5.1172,13.375c-1.664,1.3506-3.3613,2.7715-5.0937,4.2803l3.8281-10.6358a.48933.48933,0,1,0-.9199-.334L619.375,158.3818q-4.8105,4.2774-9.916,9.4121l2.88479-10.3857a.48965.48965,0,0,0-.9434-.2627L608.043,169.2324q-2.01857,2.0757-4.07421,4.2998l1.6171-7.9306a.48939.48939,0,0,0-.95889-.1963l-1.93951,9.5205q-3.82035,4.19235-7.7383,8.9023l1.5059-8.8408a.48831.48831,0,1,0-.9629-.1631l-1.793,10.5098q-3.42765,4.185-6.9121,8.7978l.9824-7.8525a.49024.49024,0,1,0-.9726-.124l-1.1934,9.5566q-3.0381,4.0767-6.10149,8.4854l.04879-7.0879a.48927.48927,0,1,0-.9785-.0098l-.0606,8.5254q-2.21475,3.2226-4.4375,6.6318l-.7597-6.042a.48917.48917,0,0,0-.9707.1221l.90421,7.1953q-2.042,3.1641-4.09171,6.4824l-.711-3.9042a.4894.4894,0,1,0-.9629.1757l.9043,4.9805q-1.5234,2.5005-3.0508,5.0938l-1.6191-3.2041a.48912.48912,0,0,0-.873.4414l1.90421,3.7656q-1.245,2.124-2.48631,4.3076c.4531.207.9024.4102,1.3457.6055Q564.79689,230.189,565.98629,228.1553Z" transform="translate(-32.6333 -41.2021)"/><path class="cls-1" d="M566.52729,240.9883c6.5118-4.1162,18-9.6338,35.3536-12.1074,29.4492-4.1973,55.7324-16.2705,53.74211-32.3672-1.916-15.5088-43.66011-9.5362-95.61321,32.542L566.5,240.9424Z" transform="translate(-32.6333 -41.2021)"/><path class="cls-3" d="M647.67579,198.9141a1.00982,1.00982,0,1,0-.0137-2.0196,72.08638,72.08638,0,0,0-8.9238.7491l4.80471-3.2432a.67216.67216,0,1,0-.752-1.1143l-7.13871,4.8203c-2.61129.4288-5.5839,1.0059-8.86129,1.7911l5.04689-4.8194a.67382.67382,0,0,0-.9297-.9756l-6.7637,6.459c-3.4043.8887-7.0879,1.9903-10.9941,3.3623l4.22461-4.3457a.67262.67262,0,0,0-.96291-.9394l-6.168,6.3457c-4.0839,1.5332-8.3808,3.3554-12.82809,5.5254l3.57029-4.5879a.67142.67142,0,1,0-1.0586-.8262l-5.30469,6.8184c-4.16791,2.1445-8.45111,4.5908-12.80271,7.3886l1.4649-3.1191a.673.673,0,1,0-1.2188-.5713l-2.3926,5.0967q-4.95119,3.29595-9.9746,7.2168l1.3399-3.1738a.67332.67332,0,1,0-1.2403-.5245l-2.3047,5.459q-2.44035,1.985-4.8847,4.1309l.9922,1.8193q2.44335-2.1606,4.8828-4.1513c1.666.1064,5.6543.4462,7.332,1.3261a.67316.67316,0,1,0,.6289-1.1904c-1.4824-.7773-4.3984-1.1729-6.4336-1.3623q1.93065-1.5366,3.8555-2.9775a28.52808,28.52808,0,0,1,8.3223,2.5742.673.673,0,1,0,.6621-1.1719,27.3342,27.3342,0,0,0-7.5098-2.499q3.9756-2.9019,7.8945-5.3994c2.2422.9257,9.3379,3.9443,12.1231,6.2334a.673.673,0,0,0,.8554-1.0391c-2.6132-2.1484-8.6992-4.8496-11.58979-6.0713q4.19819-2.62065,8.28709-4.8213c2.2402.8604,9.5293,3.8174,14.33591,7.6221a.67308.67308,0,1,0,.834-1.0567c-4.33-3.4257-10.58591-6.1738-13.61521-7.3955q2.02155-1.06335,4.0059-2.0263a65.28929,65.28929,0,0,1,17.4648,8.7422.67312.67312,0,0,0,.793-1.0879,66.592,66.592,0,0,0-16.5137-8.4893,144.58044,144.58044,0,0,1,13.7246-5.6221c2.5703,1.5918,12.5293,7.8516,16.8848,11.9912a.67244.67244,0,1,0,.92581-.9755c-4.03131-3.8311-12.64461-9.3711-16.16611-11.5801,3.2364-1.0899,6.3067-1.9883,9.17-2.7334,2.3105,1.7666,10.8457,8.2988,12.8242,10.0058a.67179.67179,0,0,0,.8808-1.0146c-1.8144-1.5645-8.95889-7.0527-12.041-9.4121,3.74811-.9229,7.1114-1.5762,9.99611-2.0361,2.07619,1.8037,7.07029,6.1601,8.23829,7.3281a.67327.67327,0,0,0,.9512-.9531c-1.041-1.0381-5.0703-4.5694-7.4434-6.6377A72.79,72.79,0,0,1,647.67579,198.9141Z" transform="translate(-32.6333 -41.2021)"/><path class="cls-1" d="M419.21089,255.1289q-.64155-8.8008-.6035-17.0889.03225-8.41845.7344-16.2382c1.7383-19.502,6.4766-36.3272,13.5371-50.6993a114.961,114.961,0,0,1,30.2285-38.3232,130.80977,130.80977,0,0,1,38.0957-21.5898,171.62666,171.62666,0,0,1,46.8985-9.8663c5.4453-.3994,10.9375-.5673,16.44141-.5185,5.57029.0498,11.13079.3271,16.64839.8183v-.0039a2.28,2.28,0,0,1,2.0703,2.4639l-.0215.1582c-.2246,2.1494-5.1855,48.2217-27.6328,89.8496-22.7051,42.1084-63.2246,79.6895-134.6386,63.1377a2.27242,2.27242,0,0,1-1.7559-2.0996ZM580.752,105.2324a240.04865,240.04865,0,0,0-29.06251,14.2041c6.0078,1.0713,19.6308,3.5996,25.746,5.5537,2.0274-9.7841,2.98051-16.9463,3.31651-19.7578Zm-3.76961,21.9004-.02539-.0078c-7.06441-2.3057-25.48821-5.5186-28.23431-5.9922-7.6641,4.4375-16.2969,9.8652-25.4688,16.374l47.8027,12.5723c2.5489-8.4092,4.4805-16.2256,5.9258-22.9463ZM570.418,152.1621l-49.46491-13.0098A330.18414,330.18414,0,0,0,494.416,160.4844c9.81059,2.9902,56.709,17.3662,64.65429,21.3828A244.72752,244.72752,0,0,0,570.418,152.1621ZM558.14839,183.835c-7.9961-4.0948-59.7656-19.8721-65.6191-21.6514-7.2305,6.5605-14.5039,13.7598-21.65429,21.6309l73.67579,23.5185a1.11864,1.11864,0,0,1,.2539.1191c3.1699-4.7099,6.07031-9.5625,8.7226-14.4804q2.44935-4.5411,4.6211-9.1367ZM543.541,209.3008l-74.26761-23.708c-5.5605,6.2177-11.0351,12.8467-16.3437,19.9033,12.0019,4.0586,73.4902,23.1885,73.6738,23.2471a1.0739,1.0739,0,0,1,.43951.2617,135.7612,135.7612,0,0,0,16.498-19.7041Zm-18.19141,21.3281c-6.5137-2.0273-64.0625-19.9502-73.7891-23.2998q-6.8232,9.2154-13.2109,19.3984c14.52541,7.1739,63.35941,19.8496,63.5059,19.8868a1.08671,1.08671,0,0,1,.666.5039,105.82325,105.82325,0,0,0,22.8281-16.4893Zm-25.3105,17.7656c-7.8262-2.0595-49.6036-13.2011-62.8418-19.8086q-4.05765,6.60645-7.875,13.6289c5.5761,2.2012,30.5586,11.7881,46.6953,13.4375a1.09249,1.09249,0,0,1,.9433.7881,98.28126,98.28126,0,0,0,23.0782-8.0459Zm-27.8496,8.9541c-16.5293-2.58-39.1446-11.3213-43.9024-13.206q-2.877,5.4009-5.5898,11.0488c18.5605,4.1602,34.9785,4.5752,49.4922,2.1572Zm-50.7676-4.5322q2.5137-5.16945,5.1699-10.1318c-2.2266-6.1826-3.8809-16.8916-4.6875-22.8975q-.1113,1.10445-.2129,2.2178-.6885,7.7226-.7266,16.0351-.02625,7.13535.4571,14.7764Zm1.1484-38.6406a1.09321,1.09321,0,0,1,.9492.9609c.0039.0498,1.7364,15.7735,4.4981,24.916q3.68265-6.71925,7.6015-13.0586a212.88756,212.88756,0,0,1-7.205-38.6298,146.22763,146.22763,0,0,0-5.8438,25.8115Zm7.0899-29.4336a1.08882,1.08882,0,0,1,.7324.9512,209.10826,209.10826,0,0,0,6.7793,38.8066q6.16995-9.78225,12.7832-18.6592c-1.2832-3.79-8.7207-26.373-9.7598-43.1562q-2.77725,4.5336-5.1992,9.4531a123.84652,123.84652,0,0,0-5.3359,12.6045Zm12.125-24.5801a1.09206,1.09206,0,0,1,.5117.8818c.582,15.1856,7.1269,36.21,9.248,42.6719,5.2383-6.9316,10.6348-13.4512,16.1114-19.5742-9.7891-20.7412-11.2637-37.6377-11.4844-41.8428a111.77985,111.77985,0,0,0-14.3867,17.8633ZM457.998,140.498a1.07888,1.07888,0,0,1,.31449.7452c.002.0537.2031,18.0127,10.9258,41.1435,7.168-7.8945,14.4629-15.1172,21.7168-21.7021-4.3906-9.8887-8.6328-34.5127-9.2012-37.8799a120.93709,120.93709,0,0,0-17.1484,11.7959q-3.4044,2.8125-6.60749,5.8974Zm25.71489-18.7871a1.04489,1.04489,0,0,1,.123.3565c.0137.0781,4.334,26.3115,8.8282,37.0752a332.19551,332.19551,0,0,1,26.8691-21.6358c-3.1797-12.6757-3.1035-26.4179-3.0703-28.6328q-7.35945,1.92345-14.4453,4.5342a137.71634,137.71634,0,0,0-18.3047,8.3027Zm34.9023-13.3847a1.07059,1.07059,0,0,1,.0332.2871,121.86682,121.86682,0,0,0,2.7911,27.5244c9.3339-6.6533,18.1269-12.1982,25.93751-16.7305a78.86689,78.86689,0,0,1-.30861-15.6347,177.57406,177.57406,0,0,0-28.4532,4.5537Zm30.6387-4.7149a1.00772,1.00772,0,0,1-.00189.1709,77.81756,77.81756,0,0,0,.16789,14.4473,255.51777,255.51777,0,0,1,29.127-14.46q-6.9786-.54045-14.0235-.6064Q556.92094,103.09575,549.25389,103.6113Z" transform="translate(-32.6333 -41.2021)"/><path class="cls-1" d="M246.8022,392.9893s-21.6738-11.1788-17.7006-38.6241c3.9726-27.4463-12.8111-36.125-17.0694-44.29-4.2588-8.1641,5.2881-21.332,4.2032-32.8613-1.0855-11.5303-14.3829-14.6143-8.1519-30.4297,6.231-15.8135.9604-21.8203-7.2437-38.7617-8.2036-16.9414,3.9527-42.8311,9.729-42.6875,5.7779.1425-1.2661,6.1982,3.8121,17.4599,5.0786,11.2598,26.4975,14.6895,33.2002,24.1055,6.7016,9.416-5.0782,21.8916,2.5693,34.6025,7.6465,12.71,30.4346,8.7676,36.4604,21.1026,6.0254,12.3349-8.3403,27.1162-4.1621,40.0478,4.1787,12.9317,19.5674,20.2598,26.044,30.6494,6.477,10.3877,18.60789,30.2891-1.2573,54.0508C287.3701,411.1143,246.8022,392.9893,246.8022,392.9893Z" transform="translate(-32.6333 -41.2021)"/><path class="cls-3" d="M208.1919,188.833a1.40991,1.40991,0,0,1,2.6313-1.0137L300.48,420.7275l-3.374-.9179Z" transform="translate(-32.6333 -41.2021)"/><path class="cls-3" d="M228.834,365.1533q-.17145-1.6245-.208-3.3525l58.8886,33.0947-5.2094-13.5342a1.58137,1.58137,0,0,1-.0674-.1728l-2.6704-6.9405-49.8643-28.0224q-.00585-1.70955-.1245-3.3057l48.398,27.1992-4.712-12.2421-46.0659-25.8877a36.81283,36.81283,0,0,0-1.9922-4.3565l46.4688,26.1133-2.3399-6.0772a1.55609,1.55609,0,0,1-.0712-.1855l-10.2329-26.584-46.1109-25.9131c.2715-.9131.5542-1.8359.8345-2.7666l43.6875,24.5508-5.1099-13.2715-36.3286-20.415a28.15115,28.15115,0,0,0,.2993-3.0684l34.4395,19.3535-3.8423-9.9824c-.021-.0459-.0391-.0947-.0552-.1416l-11.1655-29.0058-26.96-15.1504q.50835-1.41945.8853-2.7393l24.4853,13.7608-9.7485-25.3252a1.18748,1.18748,0,0,1-.0566-.1475L208.1919,188.833a1.40991,1.40991,0,0,1,2.6313-1.0137l14.6226,37.9873,8.3574-28.5478c.8633.4346,1.7193.8691,2.5606,1.3086l-9.2466,31.581,10.9883,28.544c.0161.0371.0307.0762.0429.1142l10.1621,26.3965,16.0445-34.3974c.9028.29,1.8139.5654,2.727.8339l-17.3618,37.2256,3.8721,10.0606,21.1396-44.9668c.9097.3105,1.7969.6406,2.6548.9961l-22.0849,46.9765.3364.1885a1.41192,1.41192,0,0,1,.1069,2.3965l5.7075,14.8281c.0186.044.0352.085.0498.1289l9.2403,24.003,15.6596-33.3067q.92445,1.2627,1.9629,2.4649l-16.2173,34.4951,2.377,6.1728,17.3652-36.9375q1.0614,1.0386,2.1602,2.0508l-18.1196,38.5391,6.061,15.7422c.0171.041.0317.08.0459.122l1.6777,4.3575,22.2456-47.3184c.6954.8262,1.3438,1.668,1.9341,2.5283l-22.7744,48.4434,6.4092,16.6455a1.25468,1.25468,0,0,1,.0444.1182l.02.0488c-1.1103.3467-2.2343.6435-3.3647.8906Z" transform="translate(-32.6333 -41.2021)"/><path class="cls-5" d="M236.7217,450.5303c-5.9634-4.6407-12.0923-6.7432-15.3364-9.7451-6.459-5.9766-2.106-20.8926-6.792-30.917-4.6875-10.0244-17.6431-8.5196-17.126-24.753.5166-16.2334-6.1592-19.9404-18.9917-32.5429-12.832-12.6016-10.2261-39.8047-4.9824-41.5362,5.2426-1.7304.8549,5.9854,9.0473,14.4834,8.1929,8.4951,28.5664,4.6885,37.627,11.003,9.06,6.3134,2.4756,21.3291,13.4463,30.3037,10.9707,8.9756,30.2031-1.9053,39.5927,7.2529,9.3907,9.1582,1.2227,27.0791,9.1436,37.3691,7.9199,10.2901,24.1235,11.9317,33.2939,19.1924,5.1558,4.083,12.88679,10.2969,16.84969,19.8897Z" transform="translate(-32.6333 -41.2021)"/><path class="cls-2" d="M280.1821,450.5303l-13.0298-15.1299-49.8232-8.4766c-.0488-.9082-.0918-1.8291-.1392-2.7568l47.2041,8.0283-8.8676-10.2939-39.2525-6.6778a26.91463,26.91463,0,0,0-.7192-2.8564l37.2134,6.331-6.67-7.7451c-.0336-.0361-.0654-.0732-.0952-.1123l-19.3789-22.5-29.1303-4.956c0-.961-.0289-1.875-.085-2.7491l26.4565,4.4991-16.9199-19.6455a1.36888,1.36888,0,0,1-.0986-.1153L178.916,332.9424a1.34646,1.34646,0,1,1,2.0401-1.7578l25.3803,29.4697-1.6679-28.373c.9169.1123,1.8271.2285,2.7246.3535l1.8447,31.3886,19.0703,22.1436c.0269.0283.0523.0586.0762.0889l17.6372,20.4795,3.3652-36.1104c.9048-.0293,1.8135-.0752,2.7217-.127l-3.6421,39.0782,6.7222,7.8027,4.5488-47.2559c.9185-.0117,1.8228-.0019,2.709.0411l-4.7529,49.3701.3637.0635a1.34845,1.34845,0,0,1,.8672,2.1211l9.9072,11.5029c.0298.0322.0586.0654.0855.1006l14.8203,17.208Zm4.9087,0,3.2344-33.5908c.8252.5585,1.6811,1.0859,2.5591,1.5849l-3.0811,32.0059Zm7.2979,0,2.8672-29.7842q1.29045.59325,2.6035,1.1504l-2.7569,28.6338Zm17.7339,0,2.1342-22.1719c.8926.5195,1.7466,1.0684,2.5542,1.6533l-1.9756,20.5186Z" transform="translate(-32.6333 -41.2021)"/><path class="cls-6" d="M55.5181,458.7979H50.0728a4.1453,4.1453,0,0,1-4.1338-4.1329h0a4.14561,4.14561,0,0,1,4.1338-4.1347h5.4453a4.146,4.146,0,0,1,4.1338,4.1347h0A4.14569,4.14569,0,0,1,55.5181,458.7979Z" transform="translate(-32.6333 -41.2021)"/><path class="cls-6" d="M68.7935,458.7979H668.05469a4.14557,4.14557,0,0,0,4.1348-4.1329h0a4.14589,4.14589,0,0,0-4.1348-4.1347H68.7935a4.14518,4.14518,0,0,0-4.1333,4.1347h0A4.14487,4.14487,0,0,0,68.7935,458.7979Z" transform="translate(-32.6333 -41.2021)"/><path class="cls-5" d="M109.334,306.3438Zm3.4599-13.1729a6.65442,6.65442,0,1,1-1.9492,4.707,6.63426,6.63426,0,0,1,1.9492-4.707Zm1.4375-6.5957a11.63208,11.63208,0,0,0-2.6084,1.1103,11.86353,11.86353,0,0,0-2.2885,1.7247.40851.40851,0,0,1-.4873.0595l-3.0928-1.7861-.0166-.0107a.77451.77451,0,0,0-1.0298.291l-.0132.0224-2.1753,3.7676a.77173.77173,0,0,0,.2808,1.0479l.0215.0136,3.0674,1.7715a.40711.40711,0,0,1,.1923.4502h.0005a11.92624,11.92624,0,0,0-.2583,4.2734,11.72761,11.72761,0,0,0,.2588,1.4053.4105.4105,0,0,1-.2153.4649l-3.0669,1.7695v.001a.77158.77158,0,0,0-.2808,1.0478l2.1885,3.7901h0a.76735.76735,0,0,0,1.0464.2802l.0234-.0107,3.0713-1.7734a.40754.40754,0,0,1,.4854.0586,11.81544,11.81544,0,0,0,2.2885,1.7246,11.66853,11.66853,0,0,0,2.6255,1.1152.41185.41185,0,0,1,.2969.3955v3.5664a.767.767,0,0,0,.76564.7647h4.37744a.76615.76615,0,0,0,.76562-.7647v-3.5684a.41144.41144,0,0,1,.31445-.3984,11.62538,11.62538,0,0,0,2.60791-1.1103,11.80406,11.80406,0,0,0,2.28907-1.7246.40958.40958,0,0,1,.50732-.0459l3.07178,1.7734a.77255.77255,0,0,0,.582.0742.76185.76185,0,0,0,.46484-.3564l.01368-.0215,2.17627-3.7686h-.001a.77287.77287,0,0,0-.2793-1.0478l-3.09033-1.7832a.407.407,0,0,1-.19238-.4502h0a11.89018,11.89018,0,0,0,0-5.6807.40624.40624,0,0,1,.21533-.4629l3.06738-1.7724a.7713.7713,0,0,0,.2793-1.0459l-.01123-.0215-2.17627-3.7705h-.001a.77362.77362,0,0,0-1.04687-.2813v.001l-3.09229,1.7861a.40788.40788,0,0,1-.49658-.0683,11.81079,11.81079,0,0,0-2.27979-1.7159,11.61865,11.61865,0,0,0-2.625-1.1152.412.412,0,0,1-.29736-.3945v-3.5664a.76615.76615,0,0,0-.76562-.7647H115.311a.767.767,0,0,0-.76564.7647v3.5664A.40938.40938,0,0,1,114.2314,286.5752Z" transform="translate(-32.6333 -41.2021)"/><path class="cls-5" d="M66.1279,228.3496a15.66594,15.66594,0,1,1-3.4033,5.0947,15.70028,15.70028,0,0,1,3.4033-5.0947Zm5.6441-2.0644a14.30416,14.30416,0,1,0,5.4438-1.0762,14.25811,14.25811,0,0,0-5.4438,1.0762Zm-1.7329-11.5381a25.57045,25.57045,0,0,0-5.6646,2.416,25.92576,25.92576,0,0,0-5.0034,3.7715,1.63826,1.63826,0,0,1-1.9609.2373c-2.3023-1.3291-4.7237-2.6455-6.979-4.0303a.97461.97461,0,0,0-.3389-.1045,1.023,1.023,0,0,0-.3853.0303,1.01143,1.01143,0,0,0-.353.1719.99577.99577,0,0,0-.2539.289c-1.6787,2.5401-3.3638,5.8213-4.9175,8.5147a.95963.95963,0,0,0-.1235.3623,1.02943,1.02943,0,0,0,.0303.3955,1.01845,1.01845,0,0,0,.1709.3525.99482.99482,0,0,0,.29.2549c2.0718,1.3691,4.7397,2.7402,6.9365,4.0078a1.63731,1.63731,0,0,1,.6914.7774,1.60884,1.60884,0,0,1,.1035.3418l.1426.0468-.1601.6475q-.18825.7632-.3291,1.5234-.1356.7398-.2339,1.5479c-.0635.5244-.1123,1.0449-.1426,1.5596-.0308.5029-.0459,1.0292-.0459,1.5761,0,.5479.0151,1.0742.0459,1.5752.0303.5156.0791,1.0362.1426,1.5615q.09735.80715.2339,1.5469.14055.76035.3295,1.5254a1.63627,1.63627,0,0,1-.8461,1.8516l-6.1421,3.5468.0019.003-.728.4199a.98539.98539,0,0,0-.29.2539,1.01693,1.01693,0,0,0-.1709.3525,1.0382,1.0382,0,0,0-.0303.3975.95681.95681,0,0,0,.1235.3604l4.5469,7.8798.0024-.0009.3682.6357a.98467.98467,0,0,0,.2539.2891,1.01518,1.01518,0,0,0,.353.1728,1.03929,1.03929,0,0,0,.3941.0283.94249.94249,0,0,0,.3598-.122c2.2007-1.3819,4.6831-2.7022,6.9527-4.0118a1.6425,1.6425,0,0,1,1.9541.2344l.0034.0039a25.5743,25.5743,0,0,0,10.7383,6.2061,1.64359,1.64359,0,0,1,1.1924,1.582l.0024,8.0147a.964.964,0,0,0,.0747.3769.99194.99194,0,0,0,.919.6172h9.8364a.99788.99788,0,0,0,.3764-.0742,1.02473,1.02473,0,0,0,.3243-.2178,1.048,1.048,0,0,0,.2177-.3252.97126.97126,0,0,0,.0747-.3769v-8.0166a1.65723,1.65723,0,0,1,1.2652-1.5996,25.143,25.143,0,0,0,2.8886-1.0303,25.79773,25.79773,0,0,0,7.7793-5.1572,1.64421,1.64421,0,0,1,2.0425-.1856l6.8623,3.9609a.96907.96907,0,0,0,.3633.1221,1.05447,1.05447,0,0,0,.3965-.0293,1.01216,1.01216,0,0,0,.3516-.1728.96112.96112,0,0,0,.2548-.2891c1.6299-2.8428,3.2857-5.6738,4.9175-8.5156a.96419.96419,0,0,0,.1226-.3623,1.04423,1.04423,0,0,0-.0288-.3946,1.02651,1.02651,0,0,0-.1714-.3535.91187.91187,0,0,0-.2837-.2529l-6.9429-4.0088a1.63177,1.63177,0,0,1-.7788-1.04l-.1811-.0371.1816-.7354c.127-.5088.2368-1.0185.3291-1.5244q.1362-.7398.2344-1.5479.0966-.788.143-1.5615.04545-.75285.0459-1.5752,0-.82035-.0459-1.5742c-.0302-.5137-.0781-1.0361-.142-1.5596q-.1011-.81735-.2354-1.5517c-.0928-.5059-.2021-1.0147-.3291-1.5215a1.63795,1.63795,0,0,1,.8433-1.8516l6.8745-3.9697a.93155.93155,0,0,0,.2871-.2539.9783.9783,0,0,0,.1714-.3535,1.039,1.039,0,0,0,.0288-.3936.97477.97477,0,0,0-.1226-.3633c-1.6787-2.496-3.3598-5.831-4.9175-8.5156a.98411.98411,0,0,0-.2548-.289,1.0139,1.0139,0,0,0-.3516-.1719,1.05,1.05,0,0,0-.3955-.0303.97179.97179,0,0,0-.3633.125l-6.9458,4.0088a1.62634,1.62634,0,0,1-1.0415.208,1.65424,1.65424,0,0,1-.9394-.4639,25.67118,25.67118,0,0,0-4.9825-3.7519,25.53277,25.53277,0,0,0-5.7343-2.4346,1.64374,1.64374,0,0,1-1.1929-1.582l-.0025-8.0156a.96638.96638,0,0,0-.0747-.376,1.00513,1.00513,0,0,0-.2187-.3233.98456.98456,0,0,0-.3233-.2197.99735.99735,0,0,0-.3764-.0732H72.2979a.9928.9928,0,0,0-.377.0732,1.03444,1.03444,0,0,0-.3252.2178,1.0021,1.0021,0,0,0-.2915.7012v8.0156a1.648,1.648,0,0,1-1.2651,1.6006Zm-3.458-.3037a26.74639,26.74639,0,0,0-2.9332,1.4668,27.07778,27.07778,0,0,0-2.7626,1.8291,27.36988,27.36988,0,0,0-2.5196,2.1513.1774.1774,0,0,1-.1094.0508.19293.19293,0,0,1-.1196-.0234q-3.50385-2.02155-7.0058-4.045a2.39882,2.39882,0,0,0-.877-.2763,2.46523,2.46523,0,0,0-1.7788.4902,2.41023,2.41023,0,0,0-.6289.7158c-1.6924,2.7403-3.2988,5.711-4.918,8.5137a2.42142,2.42142,0,0,0-.3047.9063,2.46391,2.46391,0,0,0,.4859,1.8105,2.42444,2.42444,0,0,0,.7153.6289c2.2329,1.3789,4.6563,2.6885,6.9414,4.0078a.18526.18526,0,0,1,.0786.0899.196.196,0,0,1,.0113.122l-.1597.6485.0088.0029c-.0698.3145-.1338.6348-.1944.96-.1015.5547-.185,1.1015-.2504,1.6367q-.09675.7983-.1485,1.6455c-.0342.5664-.0513,1.1211-.0513,1.6611q0,.8115.0513,1.6602.0513.8481.1485,1.6474.0981.8028.2509,1.6368.15315.82755.3462,1.6103a.18313.18313,0,0,1-.0132.126.18736.18736,0,0,1-.0854.0928c-2.5503,1.3632-5.1406,2.9658-7.6626,4.4228l.0903.1123-.0771.0957a2.46719,2.46719,0,0,0-.4859,1.8106,2.39418,2.39418,0,0,0,.3057.9052l5.2847,9.1524.0976-.0576a2.00176,2.00176,0,0,0,.1636.1357,2.45,2.45,0,0,0,1.8076.4844,2.40664,2.40664,0,0,0,.8819-.2901c2.312-1.2265,4.6918-2.7089,6.9746-4.0263a.21108.21108,0,0,1,.1157-.0215.20457.20457,0,0,1,.1147.0537,27.12541,27.12541,0,0,0,5.2779,3.9766,27.02019,27.02019,0,0,0,6.0639,2.5781.19631.19631,0,0,1,.1016.0684.18032.18032,0,0,1,.0391.1181v8.0147a2.45329,2.45329,0,0,0,2.4458,2.4453h9.8364a2.39768,2.39768,0,0,0,.9321-.1875,2.45168,2.45168,0,0,0,1.3257-1.3252,2.4314,2.4314,0,0,0,.187-.9326v-8.0166a.19716.19716,0,0,1,.0386-.1202.185.185,0,0,1,.1098-.0654l.0308-.0127a26.93956,26.93956,0,0,0,3.0908-1.0967,27.23859,27.23859,0,0,0,8.2163-5.4472.17839.17839,0,0,1,.1133-.0537.19023.19023,0,0,1,.1245.0312l6.9419,4.0069a2.39723,2.39723,0,0,0,.9014.3027,2.45363,2.45363,0,0,0,1.81-.4844,2.42713,2.42713,0,0,0,.6172-.6953c1.8238-2.9316,3.5464-6.1445,5.2862-9.1553l-.0933-.0556c.0176-.0772.0308-.1543.0405-.2315a2.48567,2.48567,0,0,0-.0625-.9512,2.44637,2.44637,0,0,0-.4233-.8574,2.40825,2.40825,0,0,0-.7129-.6289l-6.9434-4.0078a.19812.19812,0,0,1-.0893-.2148l.1802-.7344-.0103-.002c.062-.2851.1201-.5771.1743-.8701.1016-.5547.1865-1.1025.251-1.6387q.0981-.7983.1494-1.6474.0513-.8481.0513-1.6602,0-.81-.0513-1.6592-.0513-.8481-.1494-1.6513-.096-.79545-.251-1.6367-.153-.8262-.3457-1.6055a.20022.20022,0,0,1,.0137-.1289.18749.18749,0,0,1,.0884-.0908l6.9341-4.0039a2.374,2.374,0,0,0,.7128-.6289,2.44657,2.44657,0,0,0,.4839-1.8057,2.42735,2.42735,0,0,0-.2925-.8848c-1.6523-3.0615-3.5473-6.1474-5.2954-9.1758l-.0991.0586c-.0527-.0478-.1074-.0927-.1636-.1367a2.45834,2.45834,0,0,0-1.8086-.4853,2.41624,2.41624,0,0,0-.9023.3007l-.5137.295.002.0048-6.439,3.7159a.19446.19446,0,0,1-.2334-.0293l-.0171-.0176a27.53615,27.53615,0,0,0-2.5141-2.1416,27.17583,27.17583,0,0,0-2.7471-1.8193,26.94082,26.94082,0,0,0-6.063-2.5772.18834.18834,0,0,1-.1006-.0684.17522.17522,0,0,1-.0405-.1181v-8.0156a2.4328,2.4328,0,0,0-.7207-1.7266,2.49365,2.49365,0,0,0-.792-.5313,2.43267,2.43267,0,0,0-.9321-.1875H72.2979a2.4344,2.4344,0,0,0-.9332.1875,2.52555,2.52555,0,0,0-.7939.5313,2.43774,2.43774,0,0,0-.7187,1.7266v8.0156a.21351.21351,0,0,1-.0396.123.20688.20688,0,0,1-.1079.0655l-.0317.0107A27.151,27.151,0,0,0,66.5811,214.4434Z" transform="translate(-32.6333 -41.2021)"/><path class="cls-5" d="M342.37739,117.7139Zm3.46-13.1729a6.65562,6.65562,0,1,1-1.9492,4.7061,6.63358,6.63358,0,0,1,1.9492-4.7061Zm1.4375-6.5967a11.6629,11.6629,0,0,0-2.6084,1.1104,11.82023,11.82023,0,0,0-2.2881,1.7246.40785.40785,0,0,1-.4878.0596l-3.0923-1.7852-.0166-.0107a.76951.76951,0,0,0-.5639-.0635.75562.75562,0,0,0-.46579.3555l-.01321.0205-2.1753,3.7685a.77056.77056,0,0,0,.2807,1.0479l.021.0136,3.0674,1.7706a.40808.40808,0,0,1,.19241.4502l.00049.0009a11.74343,11.74343,0,0,0-.2578,1.4063,11.92847,11.92847,0,0,0,0,2.8662,11.66732,11.66732,0,0,0,.2588,1.4072.41021.41021,0,0,1-.2159.4639l-3.0664,1.7705h0a.77048.77048,0,0,0-.2807,1.0478l2.188,3.7901h.00051a.76875.76875,0,0,0,1.04629.2812l.0235-.0127,3.0708-1.7734a.40831.40831,0,0,1,.4858.0596,11.75172,11.75172,0,0,0,4.91361,2.8408.41017.41017,0,0,1,.29829.3926v3.5673a.76787.76787,0,0,0,.76471.7657h4.37789a.77029.77029,0,0,0,.7647-.7657v-3.5673a.4094.4094,0,0,1,.31441-.3975,11.71375,11.71375,0,0,0,2.60839-1.1113,11.87611,11.87611,0,0,0,2.2891-1.7246.40766.40766,0,0,1,.5068-.0469l3.0713,1.7734a.77.77,0,0,0,1.0478-.2812l.0127-.0215,2.1778-3.7695-.002-.001a.7677.7677,0,0,0-.2793-1.0459l-3.0898-1.7832a.41021.41021,0,0,1-.1924-.4512h-.001a11.38494,11.38494,0,0,0,.2569-1.4062,11.74271,11.74271,0,0,0,0-2.8682,11.30266,11.30266,0,0,0-.2569-1.4053.4067.4067,0,0,1,.2158-.4638l3.0674-1.7715a.76856.76856,0,0,0,.2793-1.0469l-.0117-.0225-2.1758-3.7685-.001.001a.757.757,0,0,0-.4658-.3555.76762.76762,0,0,0-.58.0732v.001l-3.0938,1.7852a.40715.40715,0,0,1-.4951-.0674,11.81635,11.81635,0,0,0-2.2803-1.7168,11.67537,11.67537,0,0,0-2.626-1.1152.41159.41159,0,0,1-.2968-.3926V93.9785a.7703.7703,0,0,0-.7647-.7646H348.355a.76788.76788,0,0,0-.76471.7646v3.5684A.4091.4091,0,0,1,347.27489,97.9443Z" transform="translate(-32.6333 -41.2021)"/><path class="cls-5" d="M666.791,244.3779Zm3.459-13.1738a6.66019,6.66019,0,1,1-1.94731,4.7061,6.639,6.639,0,0,1,1.94731-4.7061Zm1.43749-6.5967a11.65236,11.65236,0,0,0-2.6074,1.1104,11.84353,11.84353,0,0,0-2.28909,1.7256.41.41,0,0,1-.48831.0586l-3.0918-1.7852-.0156-.0098a.77412.77412,0,0,0-1.0312.291l-.0137.0206-2.1738,3.7685a.76784.76784,0,0,0,.2812,1.0479l.0195.0136,3.0684,1.7705a.41222.41222,0,0,1,.1934.4512h0a11.71926,11.71926,0,0,0-.2598,1.4063,12.27539,12.27539,0,0,0,0,2.8672,11.75431,11.75431,0,0,0,.2598,1.4062.41013.41013,0,0,1-.2168.4639l-3.0645,1.7695v.001a.77735.77735,0,0,0-.3574.4658.76777.76777,0,0,0,.0762.583l2.1875,3.7891h0a.7722.7722,0,0,0,1.0468.2812l.0235-.0127,3.0703-1.7734a.41.41,0,0,1,.48631.0596,11.8293,11.8293,0,0,0,2.28909,1.7255,11.67413,11.67413,0,0,0,2.625,1.1143.41165.41165,0,0,1,.29691.3945v3.5664a.77185.77185,0,0,0,.76559.7657h4.3789a.772.772,0,0,0,.7656-.7657v-3.5664a.41.41,0,0,1,.3125-.3994,11.66716,11.66716,0,0,0,2.60941-1.1094,11.94917,11.94917,0,0,0,2.289-1.7255.40775.40775,0,0,1,.50789-.0469l3.0703,1.7734a.77093.77093,0,0,0,1.04681-.2812l.01369-.0215,2.1758-3.7695v-.001a.77246.77246,0,0,0-.2793-1.0459l-3.0898-1.7832a.40681.40681,0,0,1-.19339-.4512h0a11.7721,11.7721,0,0,0,.25779-1.4053,12.00773,12.00773,0,0,0,0-2.8691,11.73914,11.73914,0,0,0-.25779-1.4053.40792.40792,0,0,1,.21479-.4639l3.0684-1.7714a.77253.77253,0,0,0,.2793-1.0459l-.0137-.0235L687.75,225.9971v.0009a.77467.77467,0,0,0-.46681-.3554.763.763,0,0,0-.582.0732v.001l-3.0918,1.7852a.4084.4084,0,0,1-.4961-.0674,11.72158,11.72158,0,0,0-4.90629-2.8321.41.41,0,0,1-.29491-.3935v-3.5674a.7703.7703,0,0,0-.7656-.7646h-4.3789a.77011.77011,0,0,0-.76559.7646v3.5674A.40765.40765,0,0,1,671.68749,224.6074Z" transform="translate(-32.6333 -41.2021)"/><path class="cls-1" d="M695.32229,270.4521a1.14065,1.14065,0,0,0-2.28129,0v2.6856h-2.68551a1.1416,1.1416,0,0,0,0,2.2832H693.041v2.6836a1.14065,1.14065,0,1,0,2.28129,0v-2.6836h2.6836a1.1416,1.1416,0,1,0,0-2.2832h-2.6836Z" transform="translate(-32.6333 -41.2021)"/><path class="cls-6" d="M448.86129,256.4746h-68.0175a4.5027,4.5027,0,0,0-4.4883,4.4893h0a4.50333,4.50333,0,0,0,4.4883,4.4892h68.0175a4.50251,4.50251,0,0,0,4.4903-4.4892h0A4.50188,4.50188,0,0,0,448.86129,256.4746Z" transform="translate(-32.6333 -41.2021)"/><path class="cls-7" d="M446.584,224.4766H415.10739a.56048.56048,0,0,0-.5371.4707l-5.6426,40.0351a.40248.40248,0,0,0,.40631.4707h43.02539a.40115.40115,0,0,0,.4043-.4707l-5.6426-40.0351A.562.562,0,0,0,446.584,224.4766Z" transform="translate(-32.6333 -41.2021)"/><path class="cls-7" d="M465.46289,256.4746h-68.0156a4.50188,4.50188,0,0,0-4.49029,4.4893h0a4.5025,4.5025,0,0,0,4.49029,4.4892h68.0156a4.50372,4.50372,0,0,0,4.4902-4.4892h0A4.50309,4.50309,0,0,0,465.46289,256.4746Z" transform="translate(-32.6333 -41.2021)"/><path class="cls-8" d="M316.27249,95.0713H467.063a2.3252,2.3252,0,0,1,2.3252,2.3252V198.2354a2.3252,2.3252,0,0,1-2.3252,2.3252H316.27339a2.3252,2.3252,0,0,1-2.3252-2.3252V97.3956A2.3243,2.3243,0,0,1,316.27249,95.0713Z"/><path class="cls-9" d="M323.64639,95.0713H474.437a2.3242,2.3242,0,0,1,2.3242,2.3242V198.2354a2.3252,2.3252,0,0,1-2.3252,2.3252H323.64639a2.3261,2.3261,0,0,1-2.3261-2.3261V97.3974A2.3261,2.3261,0,0,1,323.64639,95.0713Z"/><path class="cls-10" d="M505.81049,137.7861H357.53859a1.54709,1.54709,0,0,0-1.541,1.5401V230.252a.96055.96055,0,0,0,.9589.9589h149.4341a.95935.95935,0,0,0,.959-.9589V139.3262A1.546,1.546,0,0,0,505.81049,137.7861Z" transform="translate(-32.6333 -41.2021)"/><rect class="cls-11" x="329.13246" y="101.0496" width="142.64009" height="84.7138"/><path class="cls-10" d="M418.457,245.9131l-1.48821,10.5615H410.127l2.07219-14.7119h37.291l.5196,3.6787h-31.0157A.562.562,0,0,0,418.457,245.9131Z" transform="translate(-32.6333 -41.2021)"/><rect class="cls-12" x="357.89613" y="114.19155" width="83.88232" height="49.95929" rx="2.00903"/><path class="cls-13" d="M408.85294,205.41176h64.0475c.8225,0,1.48927-.90061,1.48927-2.01158V159H408.85293" transform="translate(-32.6333 -41.2021)"/><path class="cls-14" d="M444.70313,159a.62683.62683,0,0,0-.12237-.47846l-1.2887-1.63317a.63517.63517,0,0,0-.49853-.2417h-1.297v.00042H428.29127a.63512.63512,0,0,0-.49854.24164l-1.28869,1.63318A.62675.62675,0,0,0,426.3816,159Z" transform="translate(-32.6333 -41.2021)"/><path class="cls-15" d="M427.17372,159.02939a.62677.62677,0,0,0-.12238-.47845l-1.28869-1.63318a.63518.63518,0,0,0-.49854-.2417h-1.297v.00042H410.76186a.63515.63515,0,0,0-.49854.24164l-1.2887,1.63318a.62674.62674,0,0,0-.12243.47809Z" transform="translate(-32.6333 -41.2021)"/><text class="cls-16" transform="translate(391.46965 117.13989)">x</text><text class="cls-16" transform="translate(409.16082 117.1546)">x</text><path class="cls-17" d="M408.85293,159H390.5v44.40021c0,1.111.66677,2.01158,1.48931,2.01158h16.86363" transform="translate(-32.6333 -41.2021)"/><circle class="cls-18" cx="360.76784" cy="116.09124" r="0.72833"/><circle class="cls-19" cx="362.89731" cy="116.09124" r="0.72833"/><circle class="cls-20" cx="365.01784" cy="116.09124" r="0.72833"/><line class="cls-21" x1="360.07258" y1="120.50378" x2="373.54317" y2="120.50378"/><line class="cls-22" x1="380.07258" y1="120.50378" x2="389.71964" y2="120.50378"/><line class="cls-23" x1="380.07258" y1="120.50378" x2="389.71964" y2="120.50378"/><line class="cls-24" x1="380.07258" y1="123.50378" x2="386.14611" y2="123.50378"/><line class="cls-22" x1="388.07258" y1="123.50454" x2="392.98435" y2="123.48983"/><line class="cls-23" x1="388.07258" y1="123.50454" x2="392.98435" y2="123.48983"/><line class="cls-24" x1="386.07258" y1="126.50454" x2="390.98435" y2="126.48983"/><line class="cls-24" x1="386.07258" y1="135.50454" x2="390.98435" y2="135.48983"/><line class="cls-24" x1="386.07258" y1="138.50454" x2="390.98435" y2="138.48983"/><line class="cls-24" x1="386.07258" y1="150.50454" x2="390.98435" y2="150.48983"/><line class="cls-24" x1="380.07258" y1="153.50454" x2="384.98435" y2="153.48983"/><line class="cls-25" x1="395.07258" y1="123.50529" x2="396.64611" y2="123.50529"/><line class="cls-26" x1="398.63141" y1="123.50529" x2="401.05788" y2="123.50529"/><line class="cls-24" x1="403.02846" y1="123.50529" x2="405.45494" y2="123.50529"/><line class="cls-24" x1="392.07258" y1="129.50378" x2="398.14611" y2="129.50378"/><line class="cls-22" x1="400.07258" y1="129.50454" x2="404.98435" y2="129.48983"/><line class="cls-23" x1="400.07258" y1="129.50454" x2="404.98435" y2="129.48983"/><line class="cls-25" x1="407.07258" y1="129.50529" x2="408.64611" y2="129.50529"/><line class="cls-26" x1="410.63141" y1="129.50529" x2="413.05788" y2="129.50529"/><line class="cls-24" x1="415.02846" y1="129.50529" x2="417.45494" y2="129.50529"/><line class="cls-24" x1="392.07258" y1="132.50378" x2="398.14611" y2="132.50378"/><line class="cls-25" x1="400.07258" y1="132.50533" x2="411.69023" y2="132.50533"/><line class="cls-24" x1="413.48435" y1="132.50529" x2="419.32258" y2="132.50529"/><line class="cls-24" x1="392.07258" y1="141.50378" x2="398.14611" y2="141.50378"/><line class="cls-25" x1="400.07258" y1="141.50537" x2="409.21964" y2="141.50537"/><line class="cls-24" x1="411.16082" y1="141.50529" x2="417.45494" y2="141.50529"/><line class="cls-24" x1="392.07258" y1="144.50378" x2="398.14611" y2="144.50378"/><line class="cls-22" x1="403.60199" y1="144.50454" x2="408.51376" y2="144.48983"/><line class="cls-23" x1="403.60199" y1="144.50454" x2="408.51376" y2="144.48983"/><line class="cls-26" x1="400.05788" y1="144.50529" x2="401.63141" y2="144.50529"/><line class="cls-25" x1="410.63141" y1="144.50529" x2="413.05788" y2="144.50529"/><line class="cls-24" x1="415.02846" y1="144.50529" x2="417.45494" y2="144.50529"/><line class="cls-24" x1="392.07258" y1="147.50378" x2="398.14611" y2="147.50378"/><line class="cls-25" x1="400.07258" y1="147.5054" x2="408.82258" y2="147.5054"/><line class="cls-22" x1="410.63141" y1="147.50529" x2="413.05788" y2="147.50529"/><line class="cls-23" x1="410.63141" y1="147.50529" x2="413.05788" y2="147.50529"/><line class="cls-26" x1="415.02846" y1="147.50529" x2="417.45494" y2="147.50529"/><line class="cls-24" x1="419.35199" y1="147.50529" x2="421.77846" y2="147.50529"/><line class="cls-21" x1="362.13141" y1="123.50378" x2="373.54317" y2="123.50378"/><line class="cls-21" x1="364.48435" y1="126.50378" x2="373.54317" y2="126.50378"/><line class="cls-21" x1="364.3667" y1="129.50378" x2="373.54317" y2="129.50378"/><line class="cls-21" x1="361.48435" y1="132.50378" x2="373.54317" y2="132.50378"/><rect class="cls-27" x="376.21964" y="117.75378" width="1.94118" height="46.41176"/><rect class="cls-22" x="376.68279" y="119.98977" width="1.10294" height="1.05882" rx="0.36397"/><rect class="cls-22" x="376.68279" y="122.98977" width="1.10294" height="1.05882" rx="0.36397"/><rect class="cls-22" x="376.68279" y="125.98977" width="1.10294" height="1.05882" rx="0.36397"/><rect class="cls-22" x="376.68279" y="128.98977" width="1.10294" height="1.05882" rx="0.36397"/><rect class="cls-22" x="376.68279" y="131.98977" width="1.10294" height="1.05882" rx="0.36397"/><rect class="cls-22" x="376.68279" y="134.98977" width="1.10294" height="1.05882" rx="0.36397"/><rect class="cls-22" x="376.68279" y="137.98977" width="1.10294" height="1.05882" rx="0.36397"/><rect class="cls-22" x="376.68279" y="140.98977" width="1.10294" height="1.05882" rx="0.36397"/><rect class="cls-22" x="376.68279" y="143.98977" width="1.10294" height="1.05882" rx="0.36397"/><rect class="cls-22" x="376.68279" y="146.98977" width="1.10294" height="1.05882" rx="0.36397"/><rect class="cls-22" x="376.68279" y="149.98977" width="1.10294" height="1.05882" rx="0.36397"/><rect class="cls-22" x="376.68279" y="152.98977" width="1.10294" height="1.05882" rx="0.36397"/><rect class="cls-22" x="376.68279" y="155.98977" width="1.10294" height="1.05882" rx="0.36397"/><rect class="cls-22" x="376.68279" y="158.98977" width="1.10294" height="1.05882" rx="0.36397"/><rect class="cls-22" x="376.68279" y="161.98977" width="1.10294" height="1.05882" rx="0.36397"/><rect class="cls-14" x="329.10199" y="180.13614" width="142.73529" height="5.66176"/><line class="cls-25" x1="463.57258" y1="182.07882" x2="469.57258" y2="182.07882"/><line class="cls-25" x1="461.27846" y1="184.07882" x2="469.57258" y2="184.07882"/><rect class="cls-28" x="331.06523" y="181.50378" width="3.38803" height="2.95588" rx="0.22059"/><rect class="cls-29" x="339.06523" y="181.50378" width="3.38803" height="2.95588" rx="0.22059"/><rect class="cls-30" x="345.06523" y="181.50378" width="3.38803" height="2.95588" rx="0.22059"/><rect class="cls-31" x="351.06523" y="181.50378" width="3.38803" height="2.95588" rx="0.22059"/><rect class="cls-30" x="357.06523" y="181.50378" width="3.38803" height="2.95588" rx="0.22059"/><path class="cls-10" d="M430.61519,251.9824h88.4239a9.00851,9.00851,0,0,1,8.9824,8.9815h0a9.00914,9.00914,0,0,1-8.9824,8.9814h-88.4239a9.00865,9.00865,0,0,1-8.9804-8.9814h0A9.008,9.008,0,0,1,430.61519,251.9824Z" transform="translate(-32.6333 -41.2021)"/><path class="cls-32" d="M413.73829,251.9824h40.9551a9.008,9.008,0,0,1,8.9804,8.9815h0a9.00865,9.00865,0,0,1-8.9804,8.9814h-40.9551a9.00908,9.00908,0,0,1-8.9824-8.9814h0A9.00845,9.00845,0,0,1,413.73829,251.9824Z" transform="translate(-32.6333 -41.2021)"/><path class="cls-33" d="M335.43949,225.4717H609.63039a5.02731,5.02731,0,0,1,5.02731,5.02731v23.462a5.0264,5.0264,0,0,1-5.0264,5.0264H335.43849a5.0264,5.0264,0,0,1-5.0264-5.0264V230.4991A5.0274,5.0274,0,0,1,335.43949,225.4717Z"/><path class="cls-6" d="M367.93309,266.6738h274.4692a4.97387,4.97387,0,0,1,4.88871,5.0274v9.2275a4.97242,4.97242,0,0,1-4.88871,5.0264H367.93309a4.97164,4.97164,0,0,1-4.8877-5.0264v-9.2275A4.97309,4.97309,0,0,1,367.93309,266.6738Z" transform="translate(-32.6333 -41.2021)"/><path class="cls-8" d="M260.0923,225.8887H335.958a5.2129,5.2129,0,0,1,5.2129,5.2129V403.8858a5.2109,5.2109,0,0,1-5.2109,5.2109H260.0942a5.2119,5.2119,0,0,1-5.2119-5.2119V231.0987A5.21,5.21,0,0,1,260.0923,225.8887Z"/><path class="cls-33" d="M335.01859,225.8887h67.9126a4.664,4.664,0,0,1,4.664,4.664v173.878a4.666,4.666,0,0,1-4.666,4.666h-67.9097a4.666,4.666,0,0,1-4.666-4.666V230.5538A4.6651,4.6651,0,0,1,335.01859,225.8887Z"/><rect class="cls-34" x="330.41209" y="219.7618" width="297.68899" height="11.4209" rx="1.7129"/><rect class="cls-35" x="246.0039" y="219.7618" width="87.4375" height="11.4209" rx="1.7129"/><path class="cls-36" d="M340.02339,236.9639h57.9038a3.8887,3.8887,0,0,1,3.8887,3.8887v44.8838a3.8886,3.8886,0,0,1-3.8886,3.8886h-57.9039a3.8906,3.8906,0,0,1-3.8906-3.8906V240.8545A3.8906,3.8906,0,0,1,340.02339,236.9639Z"/><path class="cls-37" d="M434.40429,327.5186H377.291a3.90277,3.90277,0,0,1-3.48681-2.1709,3.84636,3.84636,0,0,1-.4033-1.7198V278.7461a3.77127,3.77127,0,0,1,.0439-.5801h-.7881a3.90129,3.90129,0,0,0-3.8906,3.8887v44.8838a3.90185,3.90185,0,0,0,3.8906,3.8886h57.9019A3.90464,3.90464,0,0,0,434.40429,327.5186Z" transform="translate(-32.6333 -41.2021)"/><path class="cls-38" d="M355.00139,240.0694H382.9468a1.5019,1.5019,0,0,1,1.5019,1.5019v.4727a1.5019,1.5019,0,0,1-1.5019,1.5019H355.00149a1.502,1.502,0,0,1-1.502-1.502v-.4726A1.5019,1.5019,0,0,1,355.00139,240.0694Z"/><rect class="cls-36" x="336.13279" y="292.4141" width="65.6831" height="52.6631" rx="3.8906"/><path class="cls-37" d="M434.40429,382.9678H377.291a3.89845,3.89845,0,0,1-3.48681-2.1699,3.84,3.84,0,0,1-.4033-1.7198V334.1953a3.78705,3.78705,0,0,1,.0439-.5791h-.7881a3.90169,3.90169,0,0,0-3.8906,3.8906v44.8819a3.903,3.903,0,0,0,3.8906,3.8906h57.9019A3.90557,3.90557,0,0,0,434.40429,382.9678Z" transform="translate(-32.6333 -41.2021)"/><path class="cls-38" d="M355.00139,295.5196h27.9454a1.50191,1.50191,0,0,1,1.50191,1.50191v.47169a1.502,1.502,0,0,1-1.502,1.502H355.00149a1.502,1.502,0,0,1-1.502-1.502v-.4717A1.5019,1.5019,0,0,1,355.00139,295.5196Z"/><path class="cls-36" d="M340.02439,347.8643h57.9009a3.8906,3.8906,0,0,1,3.8906,3.8906v44.8819a3.8906,3.8906,0,0,1-3.8906,3.8906h-57.9019a3.8906,3.8906,0,0,1-3.8906-3.8906V351.7559A3.8916,3.8916,0,0,1,340.02439,347.8643Z"/><path class="cls-37" d="M434.40429,438.4199H377.291a3.90367,3.90367,0,0,1-3.48681-2.1699,3.85094,3.85094,0,0,1-.4033-1.7217V389.6475a3.80258,3.80258,0,0,1,.0439-.5811h-.7881a3.90255,3.90255,0,0,0-3.8906,3.8916v44.8809a3.90169,3.90169,0,0,0,3.8906,3.8906h57.9019A3.90471,3.90471,0,0,0,434.40429,438.4199Z" transform="translate(-32.6333 -41.2021)"/><path class="cls-38" d="M355.00039,350.9708h27.9464a1.50191,1.50191,0,0,1,1.50191,1.50191v.47269a1.5009,1.5009,0,0,1-1.5009,1.5009H355.00149a1.502,1.502,0,0,1-1.502-1.502v-.4726A1.5009,1.5009,0,0,1,355.00039,350.9708Z"/><path class="cls-39" d="M558.12839,225.8887H568.605a.4629.4629,0,0,1,.4629.4629v184.5a.4629.4629,0,0,1-.4629.4629h-10.4746a.4649.4649,0,0,1-.4649-.4649V226.3516A.4629.4629,0,0,1,558.12839,225.8887Z"/><path class="cls-36" d="M565.22809,225.8887h3.2675a2.3379,2.3379,0,0,1,2.3379,2.3379v180.751a2.3369,2.3369,0,0,1-2.3369,2.3369H565.23a2.3379,2.3379,0,0,1-2.3379-2.3379V228.2247A2.336,2.336,0,0,1,565.22809,225.8887Z"/><path class="cls-39" d="M607.17529,225.8887H617.6518a.4629.4629,0,0,1,.4629.4629V410.8497a.4648.4648,0,0,1-.4648.4648H607.17719a.4648.4648,0,0,1-.4648-.4648V226.3516A.4629.4629,0,0,1,607.17529,225.8887Z"/><path class="cls-36" d="M614.275,225.8887h3.2675a2.3359,2.3359,0,0,1,2.3359,2.3359v180.753a2.3369,2.3369,0,0,1-2.3369,2.3369h-3.2646a2.3379,2.3379,0,0,1-2.3379-2.3379V228.2247A2.336,2.336,0,0,1,614.275,225.8887Z"/><path class="cls-40" d="M488.168,260.9639H659.02149a1.717,1.717,0,0,1,1.7129,1.7129v7.9951a1.717,1.717,0,0,1-1.7129,1.7129H499.293A63.87085,63.87085,0,0,0,488.168,260.9639Z" transform="translate(-32.6333 -41.2021)"/><path class="cls-41" d="M550.21089,211.3867l2.1465,3.5879s.834,4.3555-.4082,7.3359c-1.24019,2.9786,14.2344,6.2061,14.2344,6.2061l11.998-9.6836,2.6485-3.3096s-5.627-6.124-5.959-8.7724C574.541,204.1035,550.21089,211.3867,550.21089,211.3867Z" transform="translate(-32.6333 -41.2021)"/><path class="cls-42" d="M523.47659,245.6934s-8.1094,6.5371-10.9239,7.0332c-2.8125.497-15.1406-5.2129-17.625-5.875-2.4804-.6621-8.0254-.6621-11.916-.6621-3.88869,0-8.0273,1.4892-10.09569,5.7929h8.27539c2.2344,0,9.76561,6.1221,17.0469,11.0879,7.2832,4.9649,13.0742,9.1035,17.8769,8.6065,4.7989-.4981,21.3496-12.9102,21.3496-12.9102Z" transform="translate(-32.6333 -41.2021)"/><path class="cls-41" d="M498.23829,263.0703c7.2832,4.9649,13.0742,9.1035,17.8769,8.6065,4.7989-.4981,21.3496-12.9102,21.3496-12.9102l-13.9882-13.0732s-1.876,1.5097-4.1319,3.1323c5.8936,9.3638,3.2364,13.4087-3.67769,16.1743-5.544,2.2178-19.64261-5.4883-28.50681-9.7939C490.35449,257.4121,494.32909,260.4043,498.23829,263.0703Z" transform="translate(-32.6333 -41.2021)"/><path class="cls-32" d="M589.64449,322.084s-41.8691-.3799-47.0468.0635c-5.1778.4443-10.168,5.8945-9.30669,14.3095.86129,8.416,12.582,73.9942,12.582,73.9942a4.93027,4.93027,0,0,0,1.69929.7715c.9101.1855,8.4004,1.4218,8.4004,1.4218l.5058-6.083-4.3828-63.7929,38.6172-7.0469Z" transform="translate(-32.6333 -41.2021)"/><path class="cls-43" d="M556.47849,406.5605a2.07278,2.07278,0,0,1,1.2637,1.3624,66.21724,66.21724,0,0,1,1.1133,9.4003c-.0742,1.0342-2.6563,3.0362-7.0762,4.9122-4.4199,1.8769-21.2422,6.788-21.2422,6.788l-.1855-.6113a2.258,2.258,0,0,1-1.1133-1.3799,6.358,6.358,0,0,1,.709-4.6347c.9179-1.3077,6.3515-5.0323,7.34371-5.8301.98829-.7988,5.90819-7.6445,6.30859-8.1035a5.2844,5.2844,0,0,1,6.0703-.3926C552.74409,409.7852,556.22269,409.1787,556.47849,406.5605Z" transform="translate(-32.6333 -41.2021)"/><path class="cls-4" d="M530.35159,428.4121s16.7773-6.1572,20.457-7.4521a33.94271,33.94271,0,0,0,8.0059-4.7871,1.39362,1.39362,0,0,1,.7207.7597c.1269.4903.2246,2.2051.2675,2.5674a2.90815,2.90815,0,0,1-1.9199,2.7715c-1.8379.789-25.2793,9.0469-26.3496,9.4004-1.0723.3545-1.5039-2.4844-1.5039-2.4844S529.96289,428.5811,530.35159,428.4121Z" transform="translate(-32.6333 -41.2021)"/><path class="cls-44" d="M615.57029,296.0918s-111.9101,12.9228-118.0332,14.2461c-6.125,1.3252-11.2539,8.6064-8.9355,18.5381,2.31641,9.9287,27.39641,89.6767,27.39641,89.6767a5.94786,5.94786,0,0,0,2.15239.6621c1.1172.0821,10.2637.4122,10.2637.4122l3.5976-3.6817-20.0312-71.1836,81.7597-4.1377C616.67579,336.9277,619.78709,309.001,615.57029,296.0918Z" transform="translate(-32.6333 -41.2021)"/><path class="cls-43" d="M536.83589,304.6182s8.9375,6.6211,14.3164,4.4677c5.379-2.1513,31.1973-46.7558,31.1973-46.7558l-12.4121-44.6865a116.61307,116.61307,0,0,0-18.123,2.4834l-1.8633,1.6962s-7.2793,1.2403-11.418,5.8741-17.709,16.7158-18.207,17.708c-.4961.9941,11.834,14.5644,14.9804,16.7168a2.55142,2.55142,0,0,0,2.3985-.4141l1.4922-1.2012s3.3105,17.2364,3.3105,22.3448v5.1054s-1.7383,13.1807-3.0605,14.4229C538.123,303.6211,536.83589,304.6182,536.83589,304.6182Z" transform="translate(-32.6333 -41.2021)"/><path class="cls-4" d="M576.793,313.1133a3.753,3.753,0,1,0,0-7.5059H543.69139a16.52215,16.52215,0,0,1-16.0488-12.8906,61.078,61.078,0,0,0-6.8809,3.335,24.04258,24.04258,0,0,0,22.9297,17.0615Z" transform="translate(-32.6333 -41.2021)"/><rect class="cls-38" x="544.36279" y="301.6495" width="9.5117" height="78.2451"/><rect class="cls-8" x="531.7417" y="275.3653" width="9.26759" height="21.1846"/><rect class="cls-8" x="595.79249" y="275.3653" width="9.2676" height="21.1846"/><path class="cls-9" d="M544.36569,299.7872h9.5088a5.5059,5.5059,0,0,1,5.5059,5.5059v10.1738a5.5048,5.5048,0,0,1-5.5048,5.5048H544.3647a5.50581,5.50581,0,0,1-5.50581-5.50581V305.294A5.5068,5.5068,0,0,1,544.36569,299.7872Z"/><path class="cls-38" d="M536.79739,298.1446h24.6455a1.5781,1.5781,0,0,1,1.5781,1.5781v12.794a1.5781,1.5781,0,0,1-1.5781,1.5781h-24.6485a1.5761,1.5761,0,0,1-1.5761-1.5761v-12.795A1.5791,1.5791,0,0,1,536.79739,298.1446Z"/><path class="cls-45" d="M476.13139,292.084h77.1259a5.2949,5.2949,0,0,1,5.2949,5.2949v5.96a5.2959,5.2959,0,0,1-5.2959,5.2959h-77.124a5.2968,5.2968,0,0,1-5.2968-5.2968v-5.9581A5.2959,5.2959,0,0,1,476.13139,292.084Z"/><path class="cls-46" d="M532.23489,292.084h77.1259a5.29691,5.29691,0,0,1,5.29691,5.29691v5.958a5.2959,5.2959,0,0,1-5.2959,5.2959h-77.126a5.2968,5.2968,0,0,1-5.2968-5.2968v-5.9581A5.2959,5.2959,0,0,1,532.23489,292.084Z"/><path class="cls-9" d="M544.3647,374.795h9.50979a5.5059,5.5059,0,0,1,5.5059,5.5059v10.1728a5.5049,5.5049,0,0,1-5.5049,5.5049h-9.5117a5.5049,5.5049,0,0,1-5.5049-5.5049V380.30081A5.50581,5.50581,0,0,1,544.3647,374.795Z"/><path class="cls-38" d="M537.49759,384.8848H560.7417a2.27929,2.27929,0,0,1,2.27929,2.27929V405.6377a2.2774,2.2774,0,0,1-2.2774,2.2774h-23.248a2.2773,2.2773,0,0,1-2.2773-2.2773V387.1641A2.2793,2.2793,0,0,1,537.49759,384.8848Z"/><path class="cls-47" d="M606.99219,443.4727h0a6.84684,6.84684,0,0,1-6.82619,6.8261H563.33979a6.84553,6.84553,0,0,1-6.8261-6.8261h0a6.84583,6.84583,0,0,1,6.8261-6.8272H600.166A6.84714,6.84714,0,0,1,606.99219,443.4727Z" transform="translate(-32.6333 -41.2021)"/><path class="cls-10" d="M642.82419,450.2988h0a6.849,6.849,0,0,1-6.82619,6.8272H542.40429a6.84812,6.84812,0,0,1-6.8281-6.8272h0a6.846,6.846,0,0,1,6.8281-6.8261H635.998A6.84683,6.84683,0,0,1,642.82419,450.2988Z" transform="translate(-32.6333 -41.2021)"/><path class="cls-6" d="M584.23629,450.2988h0a6.84812,6.84812,0,0,1-6.8281,6.8272h-49.9004a6.84819,6.84819,0,0,1-6.8281-6.8272h0a6.846,6.846,0,0,1,6.8281-6.8261h49.9004A6.846,6.846,0,0,1,584.23629,450.2988Z" transform="translate(-32.6333 -41.2021)"/><path class="cls-4" d="M562.89059,287.957a3.75345,3.75345,0,1,1,0,7.5069H529.791a16.50128,16.50128,0,0,0-16.44141,16.4384v29.8321a3.7529,3.7529,0,1,1-7.5058,0V311.9023A24.00991,24.00991,0,0,1,529.791,287.957Z" transform="translate(-32.6333 -41.2021)"/><path class="cls-48" d="M636.36719,247.9697a41.25083,41.25083,0,0,0-41.1309-41.1299h-5.457a41.25089,41.25089,0,0,0-41.1309,41.1299v61.1729a10.60358,10.60358,0,0,0,10.5723,10.5713h66.5742a10.60351,10.60351,0,0,0,10.5723-10.5713Z" transform="translate(-32.6333 -41.2021)"/><path class="cls-49" d="M647.291,247.9697a41.25082,41.25082,0,0,0-41.13081-41.1299h-5.4571a41.25081,41.25081,0,0,0-41.1308,41.1299v61.1729a10.60349,10.60349,0,0,0,10.5722,10.5713h66.5743A10.6035,10.6035,0,0,0,647.291,309.1426Z" transform="translate(-32.6333 -41.2021)"/><path class="cls-43" d="M531.13479,413.0908a3.21607,3.21607,0,0,1,2.3418,1.2139c.9101,1.2012,4.1386,9.4756,4.3047,10.7168.164,1.2412-3.3106,4.3857-9.6817,7.9433-6.373,3.5577-31.2402,14.4815-31.2402,14.4815l-.4551-.6621a3.32264,3.32264,0,0,1-2.1094-1.2832,6.00745,6.00745,0,0,1-.166-5.668c1.0742-1.8203,8.5215-7.8613,9.8457-9.1035,1.3262-1.2422,7.1192-10.7988,7.6152-11.4609s4.0957-3.3936,9.3516-2.3184C526.19529,418.0264,531.45119,416.2471,531.13479,413.0908Z" transform="translate(-32.6333 -41.2021)"/><path class="cls-4" d="M496.40429,446.7842s24.4551-12.375,29.834-15.0225,11.164-8.0801,11.164-8.0801,1,.1368,1.3321.6739a30.20372,30.20372,0,0,1,1.1172,2.9375c.164.415.414,2.3574-2.2364,3.8476-2.6464,1.4893-36.90819,18.3721-38.4785,19.1162-1.5742.7442-3.0215-2.4619-3.0215-2.4619S495.84769,447.1016,496.40429,446.7842Z" transform="translate(-32.6333 -41.2021)"/><path class="cls-42" d="M543.08589,161.0244l3.9746-.9306a17.76963,17.76963,0,0,1,21.2872,13.2167l4.44531,18.9971a17.77306,17.77306,0,0,1-13.21881,21.2901l-3.9707.9287a17.77212,17.77212,0,0,1-21.291-13.2159l-4.4434-18.998A17.77129,17.77129,0,0,1,543.08589,161.0244Z" transform="translate(-32.6333 -41.2021)"/><path class="cls-41" d="M568.85739,175.4902l3.93561,16.8174a17.77306,17.77306,0,0,1-13.21881,21.2901l-3.9707.9287a17.60639,17.60639,0,0,1-11.3183-1.1221c.4687.1973,3.83781,1.5088,4.58781-.9697.80859-2.666-3.79491-11.2285-3.79491-11.2285a1.07468,1.07468,0,0,1,.0801-1.0909,15.9362,15.9362,0,0,0,1.875-10.9365c-1.1484-5.7041,6.2285-9.6826,6.2285-9.6826l-17.0703,4.624v3.4737a8.165,8.165,0,0,0-6.0957-4.3106l-.2266-.9707a17.64118,17.64118,0,0,1,1.8164-12.6885C537.35159,170.3154,555.89449,172.6787,568.85739,175.4902Z" transform="translate(-32.6333 -41.2021)"/><path class="cls-10" d="M537.33009,192.9219s-1.5469-.166-2.0586-2.3467c-.5098-2.1816-.6758-2.8975-.6758-2.8975a18.238,18.238,0,0,1-2.6211-6.3642S521.877,179.9033,519.916,170.5537c-1.96091-9.3476,6.74029-19.2285,8.02149-20.207,1.2793-.9785,6.6523-2.8389,13.39451.1855,0,0,1.14649.7129,3.35349-.1797,2.2051-.8935,14.5879-4.3945,20.5762-4.5888,5.99031-.1944,9.8516,5.9931,12.6602,13.4843a4.37173,4.37173,0,0,1,3.36911-3.6562c3.01949-.6309,1.40239,5.0293-.78321,6.9727,0,0,5.1465,2.6445,6.1309,8.1464.98431,5.503-.8789,29.7774-5.4785,34.6241-4.5997,4.8486-16.1993,6.913-19.8965,7.7773-3.6953.8652-11.0352-2.9541-14.0176-13.1201,0,0,1.459-5.0567.2578-9.2256-1.2031-4.1699-2.29689-7.2334-3.8574-7.7734-1.5586-.5401-5.4063,3.4902-5.7363,5.3027a11.33967,11.33967,0,0,0,.3984,4.2822A1.45712,1.45712,0,0,1,537.33009,192.9219Z" transform="translate(-32.6333 -41.2021)"/><path class="cls-32" d="M537.33009,192.9219s-1.5469-.166-2.0586-2.3467c-.5098-2.1816-.6758-2.8975-.6758-2.8975a18.28446,18.28446,0,0,1-2.6211-6.3652S521.877,179.9033,519.916,170.5537c-1.96091-9.3476,6.74029-19.2285,8.02149-20.207,0,0-9.51949,10.3877.9824,15.7207,10.502,5.331,26.0117,8.7236,36.1895,8.0771,10.1758-.6455,17.4082-18.3047,17.4121-18.3154,1.168,1.1113-.2344,5.1533-2.0137,6.7354,0,0,5.1465,2.6445,6.1309,8.1464.98431,5.503-.8789,29.7774-5.4785,34.6241-4.5997,4.8476-16.1993,6.913-19.8965,7.7773-3.6934.8652-11.0371-2.9541-14.0176-13.1201,0,0,1.457-5.0567.2578-9.2256-1.2031-4.1699-2.29689-7.2334-3.8555-7.7734-1.5625-.5401-5.4082,3.4902-5.7382,5.3027a11.34305,11.34305,0,0,0,.3984,4.2822A1.46265,1.46265,0,0,1,537.33009,192.9219Z" transform="translate(-32.6333 -41.2021)"/><path class="cls-1" d="M677.22849,348.0029a1.1416,1.1416,0,1,0-2.2832,0v2.6836h-2.6855a1.14115,1.14115,0,0,0,0,2.2823h2.6855v2.6835a1.1416,1.1416,0,1,0,2.2832,0v-2.6835h2.6836a1.14115,1.14115,0,1,0,0-2.2823h-2.6836Z" transform="translate(-32.6333 -41.2021)"/><path class="cls-1" d="M608.72659,111.4775a1.1416,1.1416,0,1,0-2.2832,0v2.6846h-2.6836a1.1411,1.1411,0,0,0,0,2.2822h2.6836v2.6846a1.1416,1.1416,0,1,0,2.2832,0v-2.6846h2.6836a1.1411,1.1411,0,1,0,0-2.2822h-2.6836Z" transform="translate(-32.6333 -41.2021)"/><path class="cls-1" d="M479.47659,68.8252a1.14065,1.14065,0,0,0-2.2813,0v2.6846h-2.6836a1.1416,1.1416,0,1,0,0,2.2832h2.6836v2.6845a1.14065,1.14065,0,1,0,2.2813,0V73.793h2.6855a1.1416,1.1416,0,0,0,0-2.2832h-2.6855Z" transform="translate(-32.6333 -41.2021)"/><path class="cls-1" d="M160.2354,296.3027a1.14185,1.14185,0,0,0-2.2837,0v2.6836h-2.6841a1.1421,1.1421,0,0,0,0,2.2842h2.6841v2.6846a1.14185,1.14185,0,0,0,2.2837,0v-2.6846h2.684a1.1421,1.1421,0,0,0,0-2.2842h-2.684Z" transform="translate(-32.6333 -41.2021)"/><path class="cls-1" d="M271.3887,148.959a1.14185,1.14185,0,0,0-2.2837,0v2.6855h-2.6836a1.14115,1.14115,0,0,0,0,2.2823h2.6836v2.6836a1.14185,1.14185,0,1,0,2.2837,0v-2.6836h2.6841a1.14115,1.14115,0,1,0,0-2.2823h-2.6841Z" transform="translate(-32.6333 -41.2021)"/><path class="cls-1" d="M140.8477,404.8711a1.14115,1.14115,0,0,0-2.2823,0v2.6836h-2.6845a1.1421,1.1421,0,0,0,0,2.2842h2.6845v2.6845a1.14115,1.14115,0,0,0,2.2823,0v-2.6845h2.684a1.1421,1.1421,0,1,0,0-2.2842h-2.684Z" transform="translate(-32.6333 -41.2021)"/><path class="cls-1" d="M38.7417,322.1523a1.1416,1.1416,0,0,0-2.2832,0v2.6846H33.7744a1.1416,1.1416,0,0,0,0,2.2832h2.6841v2.6836a1.1416,1.1416,0,0,0,2.2832,0v-2.6836h2.6841a1.1416,1.1416,0,1,0,0-2.2832H38.7417Z" transform="translate(-32.6333 -41.2021)"/><path class="cls-50" d="M315.4653,317.8066c16.17779-8.5986,20.2847,10.1104,13.99419,25.6026-6.29149,15.4902-38.564,67.5967-40.24949,88.2627-.6534,8.0088-2.147,7.1347-3.4248,1.5185C279.4092,405.1758,293.1953,329.6416,315.4653,317.8066Z" transform="translate(-32.6333 -41.2021)"/><path class="cls-51" d="M281.2104,246.8252c-18.5507-16.7022-30.1489,6.6758-26.9423,29.2295,3.207,22.5527,28.6845,102.0762,24.0976,129.9502-1.7783,10.8037.4849,10.1406,4.0264,3.1367C300.0601,374.2119,306.7461,269.8164,281.2104,246.8252Z" transform="translate(-32.6333 -41.2021)"/><path class="cls-52" d="M277.9785,413.749c.397,1.0362,1.2778.5235,2.46-1.2011,19.333-64.4014-10.7842-160.6231-10.8789-160.9317a1.00472,1.00472,0,0,0-1.92.5928C267.7344,252.5195,298.2627,350.0537,277.9785,413.749Z" transform="translate(-32.6333 -41.2021)"/><path class="cls-53" d="M240.6938,300.335c-17.975-7.8252-20.7954,12.4765-12.7944,28.4775,8.0029,16.002,46.773,68.8965,50.294,90.7998,1.3642,8.4902,2.8842,7.4336,3.7802,1.3359C286.4399,390.5322,265.437,311.1045,240.6938,300.335Z" transform="translate(-32.6333 -41.2021)"/><path class="cls-54" d="M279.8325,425.4785c.5532.6729,1.0816.0694,1.5327-1.5078-1.6269-52.7832-48.0097-116.9609-48.1572-117.1689a.78973.78973,0,0,0-1.2832.9209C232.0732,307.9297,279.0884,372.9834,279.8325,425.4785Z" transform="translate(-32.6333 -41.2021)"/><polygon class="cls-7" points="233.371 372.589 267.902 372.589 276.918 380.726 269.553 409.097 250.636 409.097 231.719 409.097 224.354 380.726 233.371 372.589"/><path class="cls-9" d="M224.353,362.0323h52.5645a2.8584,2.8584,0,0,1,2.8584,2.8584v12.9765a2.8584,2.8584,0,0,1-2.8584,2.8584h-52.563a2.8589,2.8589,0,0,1-2.8589-2.8589v-12.977A2.8574,2.8574,0,0,1,224.353,362.0323Z"/><polygon class="cls-10" points="276.918 380.726 275.404 386.557 225.868 386.557 224.354 380.726 276.918 380.726"/></svg>