<svg id="Layer_1" data-name="Layer 1" xmlns="http://www.w3.org/2000/svg" viewBox="0 0 560 399.99995"><defs><style>.cls-1{fill:#7ac9d0;}.cls-1,.cls-2,.cls-3{fill-rule:evenodd;}.cls-2{fill:#119ea5;}.cls-3{fill:#08808e;}</style></defs><title>top-bg</title><path class="cls-1" d="M0,0V368.57483a1120.98183,1120.98183,0,0,0,148.31049,26.30963c80.97412,8.6261,112.51147,4.74432,122.73974,0s55.40338-22.85919,115.92084-20.70264,79.72858.48285,114.44574,8.00489S560,366.84961,560,366.84961V0Z"/><path class="cls-2" d="M0,0V365.55573l57.96045,9.05737c82.67883,14.66437,149.1629,28.46612,193.48553,19.40875s64.7793-21.13391,126.14917-25.8783,97.169,9.48871,130.411,9.05738C525.05328,376.33832,550.624,375.907,560,359.08612V0Z"/><path class="cls-3" d="M0,0V365.55573s12.7854-4.74439,93.75952,10.35131,146.60578,14.233,195.19025,5.60694,103.13544-35.367,182.40484-20.2713S560,340.97137,560,340.97137V0Z"/></svg>